<svg width="1594" height="265" viewBox="0 0 1594 265" fill="none" xmlns="http://www.w3.org/2000/svg">
<path d="M75.7742 0L290.303 125.35L217.728 0H75.7742Z" fill="white"/>
<path d="M217.728 264.131L290.303 138.782L75.7742 264.131H217.728Z" fill="white"/>
<path d="M65.8612 257.416V6.71637L0 132.066L65.8612 257.416Z" fill="white"/>
<path d="M145.149 176.832C169.869 176.832 189.909 156.789 189.909 132.064C189.909 107.34 169.869 87.2968 145.149 87.2968C120.429 87.2968 100.389 107.34 100.389 132.064C100.389 156.789 120.429 176.832 145.149 176.832Z" fill="white"/>
<path d="M446.647 57.8789C414.353 57.8789 387.818 71.9487 384.941 105.524H417.231C418.833 91.1347 427.465 82.8208 444.726 82.8208C464.231 82.8208 470.946 92.4138 470.946 111.6V118.955H453.04C411.797 118.955 379.506 131.106 379.506 164.682C379.506 194.74 401.247 207.211 427.465 207.211C449.525 207.211 461.991 199.217 471.584 186.746V204.653H504.197V110.321C504.197 70.9894 478.618 57.8789 446.647 57.8789ZM470.623 154.449C470.623 172.996 455.598 183.548 435.137 183.548C418.51 183.548 412.117 175.554 412.117 163.403C412.117 145.815 428.422 140.06 453.681 140.06H470.623V154.449Z" fill="white"/>
<path d="M587.317 117.355C564.62 113.518 557.585 109.361 557.585 98.8086C557.585 88.5758 566.218 81.861 580.282 81.861C595.63 81.861 602.983 87.9365 605.861 101.047H636.552C633.037 68.7501 609.699 57.5584 580.282 57.5584C553.429 57.5584 526.252 71.9479 526.252 100.727C526.252 127.588 540.32 138.46 578.365 144.536C599.468 148.053 609.057 152.53 609.057 164.361C609.057 176.513 601.066 182.908 583.16 182.908C563.659 182.908 556.306 174.274 554.708 159.884H523.374C524.654 190.263 546.394 207.53 583.483 207.53C620.248 207.53 641.028 190.902 641.028 161.484C641.028 130.785 621.209 122.791 587.317 117.355Z" fill="white"/>
<path d="M717.445 117.355C694.748 113.518 687.714 109.361 687.714 98.8086C687.714 88.5758 696.346 81.861 710.411 81.861C725.759 81.861 733.112 87.9365 735.989 101.047H766.681C763.166 68.7501 739.827 57.5584 710.411 57.5584C683.557 57.5584 656.38 71.9479 656.38 100.727C656.38 127.588 670.449 138.46 708.494 144.536C729.597 148.053 739.185 152.53 739.185 164.361C739.185 176.513 731.195 182.908 713.288 182.908C693.787 182.908 686.434 174.274 684.836 159.884H653.503C654.782 190.263 676.523 207.53 713.611 207.53C750.376 207.53 771.156 190.902 771.156 161.484C771.479 130.785 751.337 122.791 717.445 117.355Z" fill="white"/>
<path d="M853.974 57.8789C813.052 57.8789 782.356 87.6173 782.356 132.065V134.304C782.356 179.711 812.729 207.531 855.253 207.531C892.019 207.531 916.637 190.903 921.113 160.845H889.46C886.906 174.915 876.675 182.909 856.533 182.909C831.915 182.909 818.165 167.56 816.886 140.379H922.073V130.786C922.073 78.9837 889.783 57.8789 853.974 57.8789ZM817.204 117.676C820.405 95.2919 833.832 81.8614 853.974 81.8614C874.754 81.8614 887.225 92.7339 888.823 117.676H817.204Z" fill="white"/>
<path d="M982.815 161.484V85.6989H1014.47V60.7566H982.815V29.0996H949.564L972.584 60.7566H930.383V85.6989H949.564V164.362C949.564 191.542 964.271 206.891 993.045 206.891C1003.28 206.891 1010.31 205.293 1015.75 203.374V176.833C1010.95 178.752 1006.15 179.711 999.442 179.711C988.893 180.031 982.815 174.275 982.815 161.484Z" fill="white"/>
<path d="M1120.4 57.8789C1096.74 57.8789 1080.75 69.7103 1074.04 83.7802V60.7566H1040.79V204.653H1074.04V119.914C1074.04 97.2103 1089.06 85.3789 1107.93 85.3789C1127.75 85.3789 1136.38 95.2919 1136.38 117.036V204.653H1169.63V114.158C1169.63 74.5068 1149.49 57.8789 1120.4 57.8789Z" fill="white"/>
<path d="M1256.92 57.8789C1215.99 57.8789 1185.3 87.6173 1185.3 132.065V134.304C1185.3 179.711 1215.68 207.531 1258.2 207.531C1294.97 207.531 1319.58 190.903 1324.06 160.845H1291.77C1289.21 174.915 1278.98 182.909 1258.84 182.909C1234.22 182.909 1220.47 167.56 1219.19 140.379H1324.38V130.786C1324.7 78.9837 1292.41 57.8789 1256.92 57.8789ZM1219.83 117.676C1223.03 95.2919 1236.46 81.8614 1256.6 81.8614C1277.06 81.8614 1289.85 92.7339 1291.45 117.676H1219.83Z" fill="white"/>
<path d="M1401.75 117.355C1379.05 113.518 1372.02 109.361 1372.02 98.8086C1372.02 88.5758 1380.65 81.861 1394.71 81.861C1410.06 81.861 1417.41 87.9365 1420.29 101.047H1450.98C1447.47 68.7501 1424.13 57.5584 1394.71 57.5584C1367.86 57.5584 1340.68 71.9479 1340.68 100.727C1340.68 127.588 1354.75 138.46 1392.8 144.536C1413.9 148.053 1423.49 152.53 1423.49 164.361C1423.49 176.513 1415.5 182.908 1397.59 182.908C1378.09 182.908 1370.74 174.274 1369.14 159.884H1337.8C1339.08 190.263 1360.82 207.53 1397.91 207.53C1434.68 207.53 1455.46 190.902 1455.46 161.484C1455.46 130.785 1435.64 122.791 1401.75 117.355Z" fill="white"/>
<path d="M1529.32 180.031C1518.77 180.031 1512.7 174.275 1512.7 161.484V85.6989H1544.35V60.7566H1512.7V29.0996H1479.45L1502.47 60.7566H1460.27V85.6989H1479.45V164.362C1479.45 191.542 1494.15 206.891 1522.93 206.891C1533.16 206.891 1540.19 205.293 1545.63 203.374V176.833C1540.83 179.072 1536.04 180.031 1529.32 180.031Z" fill="white"/>
</svg>
