<svg width="373" height="64" viewBox="0 0 373 64" fill="none" xmlns="http://www.w3.org/2000/svg">
<g clip-path="url(#clip0_17_522)">
<path d="M18.3018 0L70.1171 30.2731L52.5879 0H18.3018Z" fill="#00465E"/>
<path d="M52.5879 63.7902L70.1171 33.5171L18.3018 63.7902H52.5879Z" fill="#00465E"/>
<path d="M15.9075 62.1683V1.62207L0 31.8952L15.9075 62.1683Z" fill="#00465E"/>
<path d="M35.058 42.7067C41.0287 42.7067 45.8689 37.866 45.8689 31.8948C45.8689 25.9236 41.0287 21.083 35.058 21.083C29.0873 21.083 24.2471 25.9236 24.2471 31.8948C24.2471 37.866 29.0873 42.7067 35.058 42.7067Z" fill="#00465E"/>
<path d="M107.879 13.9783C100.079 13.9783 93.6701 17.3763 92.9751 25.4851H100.774C101.161 22.0099 103.246 20.002 107.415 20.002C112.126 20.002 113.748 22.3188 113.748 26.9525V28.7287H109.423C99.4617 28.7287 91.6624 31.6633 91.6624 39.7722C91.6624 47.0316 96.9134 50.0434 103.246 50.0434C108.574 50.0434 111.585 48.1128 113.902 45.1009V49.4256H121.779V26.6436C121.779 17.1446 115.601 13.9783 107.879 13.9783ZM113.67 37.3009C113.67 41.7801 110.041 44.3286 105.099 44.3286C101.083 44.3286 99.5389 42.3979 99.5389 39.4633C99.5389 35.2158 103.477 33.8257 109.578 33.8257H113.67V37.3009Z" fill="#00465E"/>
<path d="M141.855 28.3424C136.373 27.4157 134.674 26.4117 134.674 23.8632C134.674 21.3919 136.759 19.7702 140.156 19.7702C143.863 19.7702 145.639 21.2375 146.334 24.4038H153.747C152.898 16.6038 147.261 13.9009 140.156 13.9009C133.67 13.9009 127.106 17.3761 127.106 24.3266C127.106 30.8137 130.504 33.4394 139.693 34.9067C144.79 35.7562 147.106 36.8374 147.106 39.6948C147.106 42.6295 145.176 44.174 140.851 44.174C136.141 44.174 134.365 42.0889 133.979 38.6136H126.411C126.72 45.9502 131.971 50.1205 140.929 50.1205C149.809 50.1205 154.828 46.1047 154.828 38.9998C154.828 31.5859 150.041 29.6553 141.855 28.3424Z" fill="#00465E"/>
<path d="M173.285 28.3424C167.803 27.4157 166.104 26.4117 166.104 23.8632C166.104 21.3919 168.189 19.7702 171.586 19.7702C175.293 19.7702 177.069 21.2375 177.764 24.4038H185.177C184.328 16.6038 178.691 13.9009 171.586 13.9009C165.1 13.9009 158.536 17.3761 158.536 24.3266C158.536 30.8137 161.934 33.4394 171.123 34.9067C176.22 35.7562 178.536 36.8374 178.536 39.6948C178.536 42.6295 176.606 44.174 172.281 44.174C167.571 44.174 165.795 42.0889 165.409 38.6136H157.841C158.15 45.9502 163.401 50.1205 172.359 50.1205C181.239 50.1205 186.258 46.1047 186.258 38.9998C186.336 31.5859 181.471 29.6553 173.285 28.3424Z" fill="#00465E"/>
<path d="M206.261 13.9783C196.377 13.9783 188.963 21.1604 188.963 31.895V32.4356C188.963 43.4019 196.299 50.1207 206.57 50.1207C215.45 50.1207 221.396 46.1049 222.477 38.8455H214.832C214.215 42.2435 211.744 44.1742 206.879 44.1742C200.933 44.1742 197.612 40.4673 197.303 33.9029H222.709V31.5861C222.709 19.0753 214.91 13.9783 206.261 13.9783ZM197.38 28.4198C198.153 23.0139 201.396 19.7703 206.261 19.7703C211.28 19.7703 214.292 22.3961 214.678 28.4198H197.38Z" fill="#00465E"/>
<path d="M237.38 39V20.6971H245.025V14.6733H237.38V7.02783H229.349L234.909 14.6733H224.716V20.6971H229.349V39.695C229.349 46.2593 232.901 49.9662 239.851 49.9662C242.322 49.9662 244.021 49.5801 245.334 49.1167V42.7069C244.176 43.1702 243.017 43.4019 241.396 43.4019C238.848 43.4791 237.38 42.0891 237.38 39Z" fill="#00465E"/>
<path d="M270.61 13.9783C264.896 13.9783 261.035 16.8357 259.413 20.2337V14.6733H251.382V49.4256H259.413V28.9604C259.413 23.4772 263.042 20.6198 267.599 20.6198C272.386 20.6198 274.471 23.0139 274.471 28.2653V49.4256H282.502V27.5703C282.502 17.9941 277.637 13.9783 270.61 13.9783Z" fill="#00465E"/>
<path d="M303.584 13.9783C293.7 13.9783 286.287 21.1604 286.287 31.895V32.4356C286.287 43.4019 293.623 50.1207 303.893 50.1207C312.774 50.1207 318.72 46.1049 319.801 38.8455H312.001C311.384 42.2435 308.913 44.1742 304.048 44.1742C298.102 44.1742 294.781 40.4673 294.472 33.9029H319.878V31.5861C319.955 19.0753 312.156 13.9783 303.584 13.9783ZM294.627 28.4198C295.399 23.0139 298.642 19.7703 303.507 19.7703C308.449 19.7703 311.538 22.3961 311.924 28.4198H294.627Z" fill="#00465E"/>
<path d="M338.565 28.3424C333.083 27.4157 331.384 26.4117 331.384 23.8632C331.384 21.3919 333.469 19.7702 336.866 19.7702C340.573 19.7702 342.349 21.2375 343.044 24.4038H350.457C349.608 16.6038 343.971 13.9009 336.866 13.9009C330.38 13.9009 323.816 17.3761 323.816 24.3266C323.816 30.8137 327.214 33.4394 336.403 34.9067C341.5 35.7562 343.816 36.8374 343.816 39.6948C343.816 42.6295 341.886 44.174 337.561 44.174C332.851 44.174 331.075 42.0889 330.689 38.6136H323.121C323.43 45.9502 328.681 50.1205 337.639 50.1205C346.519 50.1205 351.539 46.1047 351.539 38.9998C351.539 31.5859 346.751 29.6553 338.565 28.3424Z" fill="#00465E"/>
<path d="M369.379 43.4791C366.83 43.4791 365.363 42.0891 365.363 39V20.6971H373.008V14.6733H365.363V7.02783H357.332L362.892 14.6733H352.699V20.6971H357.332V39.695C357.332 46.2593 360.884 49.9662 367.834 49.9662C370.305 49.9662 372.004 49.5801 373.317 49.1167V42.7069C372.159 43.2475 371 43.4791 369.379 43.4791Z" fill="#00465E"/>
</g>
<defs>
<clipPath id="clip0_17_522">
<rect width="373" height="64" fill="white"/>
</clipPath>
</defs>
</svg>